<svg width="96" height="107" viewBox="0 0 96 107" fill="none" xmlns="http://www.w3.org/2000/svg">
<path d="M89.2304 16.8914C88.8948 17.1849 88.4636 17.3457 88.0178 17.3436C87.572 17.3415 87.1424 17.1766 86.8095 16.8799C86.6495 16.7315 86.5226 16.5511 86.437 16.3503C86.3514 16.1496 86.309 15.933 86.3127 15.7148C86.3164 15.4966 86.3661 15.2816 86.4584 15.0838C86.5508 14.8861 86.6838 14.7101 86.8487 14.5672C87.1733 14.2814 87.5922 14.1261 88.0246 14.1312C88.4753 14.1222 88.9115 14.2913 89.2385 14.6018C89.3979 14.7472 89.525 14.9245 89.6116 15.1221C89.6982 15.3198 89.7424 15.5334 89.7413 15.7492C89.7402 15.965 89.6939 16.1782 89.6053 16.3749C89.5167 16.5717 89.3878 16.7477 89.227 16.8914H89.2304ZM87.0182 14.8071C86.8877 14.9266 86.7837 15.0721 86.7128 15.2342C86.6419 15.3963 86.6056 15.5715 86.6064 15.7484C86.6071 15.9254 86.6449 16.1002 86.7172 16.2617C86.7895 16.4232 86.8948 16.5678 87.0262 16.6861C87.2989 16.9375 87.6561 17.077 88.0269 17.077C88.3977 17.077 88.7549 16.9375 89.0275 16.6861C89.1581 16.5672 89.2624 16.4223 89.3338 16.2607C89.4052 16.0992 89.4421 15.9244 89.4421 15.7478C89.4421 15.5711 89.4052 15.3964 89.3338 15.2348C89.2624 15.0732 89.1581 14.9283 89.0275 14.8094C88.756 14.5518 88.3959 14.4081 88.0217 14.4081C87.6474 14.4081 87.2874 14.5518 87.0159 14.8094L87.0182 14.8071ZM87.2752 16.6319V14.8475H87.8055C88.0361 14.8475 88.171 14.8475 88.1975 14.8475C88.3276 14.8526 88.4553 14.8835 88.5733 14.9386C88.6532 14.9762 88.72 15.0368 88.7652 15.1126C88.8104 15.1885 88.8319 15.2761 88.8269 15.3643C88.8323 15.425 88.8229 15.4862 88.7996 15.5426C88.7763 15.599 88.7398 15.649 88.6932 15.6884C88.5958 15.756 88.4818 15.7959 88.3635 15.8037C88.4598 15.8179 88.5519 15.8529 88.6333 15.9064C88.6914 15.9547 88.737 16.0163 88.7663 16.0859C88.7956 16.1556 88.8077 16.2313 88.8016 16.3066V16.4658C88.8004 16.4831 88.8004 16.5004 88.8016 16.5177C88.804 16.5355 88.8087 16.553 88.8154 16.5696L88.8327 16.6204H88.3577C88.3384 16.5395 88.3276 16.4567 88.3255 16.3735C88.3262 16.2997 88.3157 16.2262 88.2943 16.1555C88.2823 16.1248 88.2635 16.0971 88.2393 16.0745C88.2152 16.052 88.1863 16.0351 88.1548 16.0252C88.0997 16.0071 88.0422 15.9974 87.9842 15.9964L87.8747 15.9906H87.7698V16.6204L87.2752 16.6319ZM88.1837 15.2016C88.0899 15.1736 87.9921 15.1612 87.8943 15.1647H87.779V15.6815H87.9727C88.0682 15.6868 88.1632 15.6639 88.2459 15.6157C88.279 15.5919 88.3054 15.56 88.3225 15.523C88.3397 15.486 88.347 15.4453 88.3439 15.4046C88.3443 15.3576 88.3286 15.3118 88.2995 15.2749C88.2704 15.238 88.2295 15.2121 88.1837 15.2016V15.2016Z" fill="#14142B"/>
<path d="M27.1867 55.1323H22.791L15.4395 43.6311V55.1323H11.0449V36.4854H15.4395L22.791 48.0396V36.4854H27.1867V55.1323Z" fill="#14142B"/>
<path d="M41.6073 51.838H34.8725L33.7935 55.1323H29.1914L35.721 36.4854H40.8107L47.3391 55.1323H42.6863L41.6073 51.838ZM40.4764 48.3326L38.2399 41.5052L36.0322 48.3326H40.4764Z" fill="#14142B"/>
<path d="M53.187 54.0962C51.7762 53.2848 50.6122 52.1051 49.8196 50.6831C48.988 49.2221 48.5723 47.5795 48.5723 45.7555C48.5723 43.9315 48.988 42.2932 49.8196 40.8406C50.6154 39.4246 51.7789 38.25 53.187 37.4413C54.6115 36.6398 56.2182 36.2188 57.8525 36.2188C59.4867 36.2187 61.0935 36.6398 62.5179 37.4413C63.9228 38.2462 65.0794 39.4222 65.8611 40.8406C66.675 42.2924 67.082 43.9307 67.082 45.7555C67.082 47.5803 66.6708 49.2228 65.8484 50.6831C65.0651 52.1039 63.9092 53.284 62.5053 54.0962C61.0831 54.8971 59.4787 55.3178 57.8467 55.3178C56.2148 55.3178 54.6103 54.8971 53.1882 54.0962H53.187ZM61.3098 49.6819C62.1744 48.6899 62.6071 47.3796 62.6079 45.7509C62.6079 44.1038 62.1752 42.7888 61.3098 41.8061C60.4444 40.8233 59.2916 40.3319 57.8513 40.3319C56.3911 40.3319 55.2298 40.8191 54.3675 41.7934C53.5052 42.7677 53.0729 44.0899 53.0706 45.7601C53.0706 47.4073 53.5033 48.7222 54.3686 49.705C55.234 50.6877 56.3953 51.1791 57.8525 51.1791C59.2912 51.176 60.4436 50.677 61.3098 49.6819Z" fill="#14142B"/>
<path d="M80.5761 55.1323L76.9009 49.4215L73.6615 55.1323H68.6755L74.4581 45.645L68.543 36.4854H73.6615L77.286 42.1166L80.4735 36.4854H85.4606L79.7253 45.8884L85.6889 55.1323H80.5761Z" fill="#14142B"/>
<path d="M8.28317 93.0444V94.1125H5.54291V103.104H4.22985V94.1125H1.47461V93.0444H8.28317Z" fill="#14142B"/>
<path d="M17.0668 99.6399H10.7493C10.797 100.42 11.0637 101.028 11.5494 101.466C12.0339 101.904 12.6683 102.139 13.3213 102.122C13.8248 102.141 14.3217 102.002 14.7427 101.725C15.1167 101.468 15.3973 101.096 15.5428 100.665H16.9561C16.7561 101.41 16.3089 102.064 15.688 102.52C15.054 102.995 14.2654 103.233 13.3224 103.234C12.6188 103.246 11.9244 103.072 11.3096 102.729C10.7189 102.392 10.2363 101.894 9.91816 101.293C9.57081 100.627 9.39713 99.8851 9.41323 99.1346C9.39662 98.3883 9.56536 97.6496 9.90433 96.9846C10.2139 96.3858 10.6926 95.8912 11.2808 95.5624C11.9065 95.2228 12.6096 95.0515 13.3213 95.0652C14.0164 95.0517 14.7028 95.2207 15.3122 95.5554C15.8757 95.8697 16.3382 96.3377 16.646 96.905C16.9646 97.5018 17.126 98.1698 17.1152 98.8463C17.1127 99.1115 17.0965 99.3763 17.0668 99.6399V99.6399ZM15.4229 97.2799C15.2072 96.9251 14.8943 96.6397 14.5214 96.4575C14.128 96.2673 13.6959 96.1709 13.259 96.176C12.6335 96.1618 12.0265 96.3894 11.5644 96.8116C11.0979 97.2345 10.8308 97.8212 10.7632 98.5717H15.7549C15.7672 98.1185 15.6522 97.6709 15.4229 97.2799V97.2799Z" fill="#14142B"/>
<path d="M18.8423 96.9914C19.1532 96.398 19.6262 95.9052 20.2061 95.5703C20.8136 95.2271 21.5018 95.0527 22.1993 95.0651C23.17 95.0651 23.9704 95.3008 24.6006 95.7721C25.2373 96.2556 25.6798 96.9512 25.848 97.733H24.4393C24.3187 97.2724 24.0405 96.8687 23.653 96.5923C23.2253 96.3017 22.7159 96.1558 22.1993 96.1759C21.4485 96.1759 20.8425 96.4335 20.3813 96.9487C19.9202 97.4639 19.6896 98.1944 19.6896 99.1403C19.6896 100.093 19.9202 100.829 20.3813 101.349C20.8425 101.869 21.4485 102.127 22.1993 102.122C22.7104 102.141 23.2146 102 23.6415 101.718C24.0334 101.439 24.3143 101.031 24.4346 100.565H25.848C25.6603 101.338 25.2126 102.024 24.5799 102.506C23.9458 102.991 23.1527 103.234 22.2005 103.235C21.5014 103.248 20.8115 103.074 20.2026 102.73C19.621 102.393 19.1478 101.898 18.8389 101.301C18.4996 100.63 18.3313 99.8867 18.3489 99.1356C18.3328 98.391 18.5024 97.654 18.8423 96.9914V96.9914Z" fill="#14142B"/>
<path d="M33.137 95.4332C33.6216 95.6923 34.0167 96.092 34.2702 96.5798C34.5438 97.0904 34.6806 97.7113 34.6806 98.4426V103.104H33.3814V98.6295C33.3814 97.8405 33.1842 97.2369 32.79 96.8185C32.3957 96.4002 31.8577 96.191 31.176 96.191C30.4843 96.191 29.9337 96.4075 29.524 96.8404C29.1144 97.2734 28.91 97.9036 28.9107 98.731V103.104H27.5977V92.4238H28.9107V96.3202C29.1741 95.9132 29.5464 95.5883 29.9852 95.3825C30.4653 95.1559 30.991 95.0422 31.5219 95.0503C32.0836 95.0422 32.6386 95.1738 33.137 95.4332V95.4332Z" fill="#14142B"/>
<path d="M43.0173 95.9232C43.6144 96.5061 43.9126 97.3458 43.9119 98.4424V103.104H42.6138V98.6292C42.6138 97.8403 42.4166 97.2366 42.0224 96.8183C41.6281 96.4 41.0901 96.1908 40.4084 96.1908C39.7167 96.1908 39.1661 96.4073 38.7564 96.8402C38.3468 97.2731 38.1424 97.9033 38.1431 98.7307V103.104H36.8301V95.1942H38.142V96.32C38.4024 95.9156 38.7694 95.591 39.2026 95.3822C39.6626 95.1578 40.1687 95.044 40.6805 95.05C41.642 95.05 42.4209 95.3411 43.0173 95.9232Z" fill="#14142B"/>
<path d="M47.4977 102.729C46.8989 102.395 46.408 101.897 46.0832 101.293C45.7314 100.629 45.5552 99.8857 45.5713 99.1344C45.5561 98.3862 45.7378 97.6471 46.0982 96.9913C46.4311 96.3881 46.929 95.8924 47.5334 95.5621C48.1616 95.2355 48.8591 95.0649 49.567 95.0649C50.2749 95.0649 50.9724 95.2355 51.6006 95.5621C52.2037 95.8913 52.7017 96.3844 53.037 96.9844C53.3982 97.6423 53.5795 98.3839 53.5627 99.1344C53.579 99.8893 53.3922 100.635 53.022 101.293C52.6768 101.898 52.1698 102.395 51.5579 102.729C50.9292 103.069 50.2241 103.243 49.5094 103.234C48.8063 103.243 48.113 103.069 47.4977 102.729V102.729ZM50.8409 101.747C51.2629 101.517 51.6108 101.172 51.8438 100.752C52.1114 100.256 52.2435 99.6994 52.2266 99.1367C52.2434 98.5749 52.1139 98.0184 51.8507 97.5219C51.6264 97.1042 51.2855 96.7608 50.8697 96.5334C50.4639 96.3197 50.0123 96.208 49.5537 96.208C49.0952 96.208 48.6436 96.3197 48.2378 96.5334C47.8274 96.7606 47.4936 97.1047 47.2787 97.5219C47.0251 98.0214 46.901 98.5767 46.9178 99.1367C46.8997 99.7011 47.0209 100.261 47.2706 100.768C47.4807 101.184 47.8097 101.528 48.2159 101.756C48.6137 101.974 49.0606 102.086 49.514 102.082C49.9757 102.082 50.4303 101.967 50.8363 101.747H50.8409Z" fill="#14142B"/>
<path d="M56.6049 92.4238V103.104H55.293V92.4238H56.6049Z" fill="#14142B"/>
<path d="M60.2777 102.729C59.6772 102.396 59.1847 101.897 58.8586 101.293C58.5068 100.629 58.3306 99.8857 58.3467 99.1344C58.3315 98.3862 58.5132 97.6471 58.8736 96.9913C59.2065 96.3881 59.7044 95.8924 60.3088 95.5621C60.9372 95.2355 61.6349 95.0649 62.343 95.0649C63.0511 95.0649 63.7488 95.2355 64.3771 95.5621C64.9797 95.8917 65.4772 96.3847 65.8124 96.9844C66.1735 97.6423 66.3549 98.384 66.3381 99.1344C66.3543 99.8893 66.1676 100.635 65.7974 101.293C65.4522 101.898 64.9452 102.395 64.3333 102.729C63.7046 103.069 62.9995 103.243 62.2847 103.234C61.5833 103.242 60.8916 103.068 60.2777 102.729V102.729ZM63.6209 101.747C64.0429 101.517 64.3908 101.172 64.6238 100.752C64.8914 100.256 65.0235 99.6994 65.0066 99.1367C65.0234 98.5749 64.8939 98.0184 64.6307 97.5219C64.4064 97.1042 64.0655 96.7608 63.6497 96.5334C63.2439 96.3197 62.7923 96.208 62.3337 96.208C61.8752 96.208 61.4236 96.3197 61.0178 96.5334C60.6074 96.7606 60.2736 97.1047 60.0587 97.5219C59.8051 98.0214 59.681 98.5767 59.6978 99.1367C59.6797 99.7011 59.8009 100.261 60.0506 100.768C60.2607 101.184 60.5897 101.528 60.9959 101.756C61.3937 101.974 61.8406 102.086 62.294 102.082C62.7557 102.082 63.2103 101.967 63.6163 101.747H63.6209Z" fill="#14142B"/>
<path d="M73.1301 95.5126C73.611 95.774 74.0101 96.1637 74.2829 96.6384V95.1943H75.6098V103.277C75.6223 103.948 75.4636 104.611 75.1487 105.204C74.8435 105.763 74.383 106.222 73.823 106.525C73.2089 106.852 72.5209 107.017 71.8251 107.001C70.7868 107.001 69.9214 106.755 69.229 106.264C68.8946 106.035 68.6125 105.738 68.4011 105.393C68.1897 105.047 68.0538 104.66 68.0024 104.258H69.3004C69.4473 104.742 69.7653 105.155 70.195 105.421C70.6841 105.723 71.2509 105.874 71.8251 105.856C72.5468 105.856 73.1359 105.63 73.5924 105.178C74.0489 104.725 74.2772 104.09 74.2772 103.272V101.617C74.0009 102.096 73.6033 102.494 73.1243 102.77C72.5827 103.087 71.9636 103.247 71.3363 103.232C70.6624 103.24 69.9996 103.06 69.4232 102.71C68.8469 102.361 68.3802 101.856 68.0761 101.255C67.7403 100.593 67.5717 99.8599 67.585 99.1184C67.5689 98.3788 67.7377 97.6468 68.0761 96.9891C68.3838 96.3983 68.8512 95.9059 69.4249 95.568C70.0045 95.2292 70.6652 95.0545 71.3363 95.0628C71.9637 95.0496 72.5831 95.2049 73.1301 95.5126ZM73.9163 97.5762C73.6944 97.152 73.3571 96.7993 72.9434 96.5588C72.5326 96.3285 72.0699 96.2069 71.5991 96.2055C71.1282 96.2041 70.6648 96.3229 70.2527 96.5508C69.8419 96.7898 69.507 97.14 69.2866 97.5612C69.0368 98.0423 68.9127 98.5787 68.9258 99.1207C68.9122 99.6693 69.0363 100.213 69.2866 100.701C69.506 101.126 69.8408 101.481 70.2527 101.725C70.6597 101.962 71.1235 102.085 71.5946 102.079C72.0677 102.084 72.5334 101.962 72.9434 101.725C73.3583 101.483 73.6958 101.128 73.9163 100.701C74.1657 100.217 74.2898 99.6786 74.2772 99.1345C74.2903 98.5929 74.1662 98.0568 73.9163 97.5762V97.5762Z" fill="#14142B"/>
<path d="M77.869 93.6497C77.7433 93.5245 77.6576 93.3648 77.6228 93.1908C77.5881 93.0167 77.6058 92.8363 77.6737 92.6724C77.7417 92.5085 77.8568 92.3684 78.0045 92.2701C78.1521 92.1718 78.3257 92.1196 78.503 92.1202C78.6177 92.1184 78.7315 92.1405 78.8371 92.1852C78.9427 92.2299 79.0378 92.2961 79.1163 92.3798C79.2785 92.5511 79.3689 92.7782 79.3689 93.0142C79.3689 93.2502 79.2785 93.4772 79.1163 93.6486C79.038 93.7326 78.943 93.7992 78.8374 93.8441C78.7317 93.889 78.6178 93.9112 78.503 93.9093C78.3852 93.9118 78.2681 93.8901 78.159 93.8455C78.0499 93.8008 77.9512 93.7342 77.869 93.6497ZM79.1371 95.1942V103.104H77.8252V95.1942H79.1371Z" fill="#14142B"/>
<path d="M88.5416 99.6398H82.2229C82.2714 100.42 82.5404 101.028 83.0299 101.466C83.5129 101.903 84.1451 102.138 84.796 102.122C85.2992 102.141 85.7956 102.002 86.2163 101.725C86.5931 101.469 86.8763 101.097 87.0233 100.665H88.4367C88.2358 101.409 87.7888 102.063 87.1685 102.52C86.5337 102.995 85.7452 103.233 84.803 103.234C84.0993 103.246 83.4049 103.072 82.7901 102.729C82.1992 102.392 81.7165 101.894 81.3987 101.293C81.0513 100.627 80.8776 99.8851 80.8937 99.1346C80.8768 98.3884 81.0451 97.6497 81.3837 96.9846C81.6957 96.3852 82.1767 95.8906 82.7671 95.5624C83.3893 95.2246 84.0882 95.0533 84.796 95.0652C85.4907 95.0516 86.1768 95.2207 86.7858 95.5554C87.3498 95.8693 87.8129 96.3374 88.1208 96.905C88.4393 97.5017 88.6008 98.1698 88.59 98.8463C88.5874 99.1114 88.5713 99.3763 88.5416 99.6398V99.6398ZM86.8976 97.2799C86.6818 96.9248 86.3684 96.6393 85.995 96.4574C85.602 96.2671 85.1703 96.1708 84.7338 96.176C84.1079 96.1619 83.5006 96.3895 83.038 96.8116C82.5722 97.2345 82.3056 97.8212 82.2379 98.5717H87.2285C87.2405 98.1187 87.1259 97.6713 86.8976 97.2799V97.2799Z" fill="#14142B"/>
<path d="M91.4829 102.924C91.0335 102.741 90.6405 102.442 90.3439 102.057C90.0657 101.688 89.905 101.243 89.8828 100.78H91.2385C91.2556 100.972 91.3142 101.158 91.4101 101.325C91.5061 101.492 91.6371 101.636 91.7942 101.747C92.1254 101.997 92.5604 102.122 93.0992 102.122C93.5995 102.122 93.9938 102.012 94.282 101.791C94.4157 101.696 94.5246 101.571 94.5992 101.425C94.6739 101.279 94.7122 101.117 94.7108 100.953C94.7169 100.794 94.6766 100.636 94.5947 100.499C94.5129 100.361 94.393 100.251 94.2497 100.181C93.7944 99.9603 93.315 99.7935 92.8214 99.6834C92.3323 99.5616 91.8526 99.4047 91.3861 99.214C91.0177 99.0561 90.6916 98.8139 90.4339 98.5069C90.1695 98.1947 90.0373 97.7833 90.0373 97.2727C90.0357 96.8734 90.1622 96.484 90.3981 96.1619C90.6601 95.8051 91.0139 95.526 91.4218 95.3545C91.9003 95.1503 92.4165 95.0497 92.9366 95.0592C93.812 95.0592 94.5191 95.2803 95.0578 95.7225C95.5966 96.1646 95.8848 96.7709 95.9224 97.5415H94.6151C94.6073 97.3496 94.5589 97.1615 94.473 96.9897C94.3872 96.8179 94.2659 96.6663 94.1171 96.5449C93.8135 96.2957 93.4074 96.1708 92.8986 96.17C92.4275 96.17 92.0524 96.2711 91.7734 96.4734C91.6429 96.56 91.5362 96.6781 91.463 96.8167C91.3899 96.9554 91.3528 97.1102 91.355 97.2669C91.3511 97.3856 91.3714 97.5038 91.4149 97.6143C91.4583 97.7248 91.5238 97.8252 91.6074 97.9094C91.7886 98.0864 92.0045 98.2239 92.2415 98.3131C92.5889 98.4445 92.9429 98.5577 93.3021 98.6523C93.7723 98.7745 94.2343 98.9263 94.6855 99.1067C95.0416 99.2543 95.3577 99.4844 95.6077 99.778C95.874 100.109 96.0145 100.523 96.0043 100.948C96.0091 101.365 95.8829 101.774 95.6435 102.116C95.3868 102.477 95.0347 102.76 94.6267 102.932C94.1509 103.137 93.6368 103.238 93.1188 103.228C92.5584 103.239 92.0017 103.136 91.4829 102.924V102.924Z" fill="#14142B"/>
<path d="M50.3416 62.265H53.7101V62.8418C53.7101 67.7963 53.7101 72.7508 53.7101 77.7053C53.7101 81.604 56.1772 84.7045 59.9642 85.5881C64.1962 86.5766 68.683 83.543 69.3481 79.244C70.0179 74.9128 67.4137 71.0902 63.1448 70.1593C62.6664 70.0544 62.1707 70.0267 61.6404 69.9586V66.6436C62.6365 66.567 63.6379 66.6901 64.5858 67.0058C69.2559 68.4591 71.9639 71.6335 72.7974 76.4353C72.8066 76.4849 72.8055 76.5368 72.8101 76.5876C72.9046 77.7318 72.9184 77.7411 74.0851 77.8645C77.5147 78.2105 80.4464 76.1147 81.1254 72.7546C81.2706 72.0372 81.1795 71.2713 81.1842 70.5273C81.1842 70.2447 81.0112 70.1443 80.7403 70.0728C79.1212 69.6567 77.617 68.8799 76.34 67.8005C76.1094 67.6056 75.8927 67.3945 75.7013 67.2238L78.0865 64.8395C78.3955 65.0806 78.7425 65.3771 79.1148 65.6366C83.0102 68.3542 88.4435 67.0046 90.5958 62.7679C90.8068 62.3515 91.0373 62.2166 91.4869 62.2327C92.453 62.2673 93.4202 62.2431 94.3966 62.2431C93.758 65.3009 90.401 70.1017 83.9636 70.4569C83.9636 71.0694 83.9901 71.6911 83.9636 72.3105C83.7665 76.2646 80.3783 79.9638 76.4634 80.5255C75.3105 80.6916 74.1577 80.7181 73.0164 80.4505C72.689 80.3744 72.5887 80.4817 72.4942 80.7966C71.1581 85.2201 68.2288 87.9827 63.7201 88.9631C58.0136 90.2031 51.9982 86.3482 50.6644 80.6339C50.4609 79.7753 50.3526 78.8968 50.3416 78.0144C50.3116 72.8907 50.3255 67.7659 50.3255 62.641C50.3266 62.5176 50.3347 62.4023 50.3416 62.265Z" fill="#14142B"/>
<path d="M83.9777 18.7171C87.0419 18.8936 89.6323 20.0102 91.7385 22.1868C93.0267 23.5115 93.959 25.1407 94.4488 26.9229C93.2764 26.9229 92.1593 26.9402 91.0445 26.9021C90.9027 26.9021 90.7344 26.6322 90.641 26.4546C89.4986 24.2791 87.744 22.8719 85.3484 22.3332C82.7938 21.7565 80.4985 22.3586 78.4811 24.0219C78.3393 24.1373 78.1975 24.2526 78.0891 24.3472L75.6993 21.9607C76.7849 20.8779 78.0852 20.0347 79.5163 19.4853C79.7999 19.37 80.0927 19.2731 80.3821 19.1854C81.2502 18.9236 81.2502 18.9271 81.2755 17.9835C81.3528 15.093 79.2408 12.3696 76.4152 11.6995C75.3862 11.4529 74.313 11.4581 73.2865 11.7145C72.9925 11.7871 72.8415 11.9163 72.8173 12.2589C72.453 17.3849 68.3363 21.7681 63.2558 22.4394C62.7359 22.5074 62.2113 22.5374 61.6418 22.5882V19.2431C62.3185 19.1208 63.0068 19.0366 63.6742 18.8717C66.6716 18.1312 69.6977 15.1022 69.4568 10.6925C69.2746 7.34743 66.5655 4.23308 63.1163 3.55023C62.0586 3.34322 60.9697 3.35563 59.917 3.58672C58.8643 3.8178 57.8702 4.26263 56.9962 4.89366C56.1223 5.5247 55.3871 6.32851 54.8362 7.25532C54.2853 8.18214 53.9304 9.21224 53.7934 10.2818C53.7393 10.7026 53.7116 11.1264 53.7104 11.5507C53.705 16.4721 53.705 21.3936 53.7104 26.315V26.8975H50.3131C50.3131 25.9032 50.3131 24.9228 50.3131 23.9412C50.3131 19.7529 50.3569 15.5647 50.3131 11.3765C50.2589 5.93559 54.2061 1.28944 59.3419 0.22825C65.1233 -0.964433 71.0108 2.65053 72.506 8.41093C72.5567 8.60586 72.6086 8.8008 72.6697 9.02803C75.6924 8.37978 78.4338 8.95306 80.7879 10.9601C83.1419 12.9671 84.1656 15.5797 83.9777 18.7171Z" fill="#14142B"/>
<path d="M44.1019 62.265H40.7368V62.8418C40.7368 67.7963 40.7368 72.7508 40.7368 77.7053C40.7368 81.604 38.2698 84.7045 34.4839 85.5881C30.2519 86.5766 25.764 83.543 25.1 79.244C24.429 74.9128 27.0344 71.0902 31.3033 70.1593C31.7817 70.0544 32.2774 70.0267 32.802 69.9586V66.6436C31.8062 66.567 30.8052 66.6901 29.8577 67.0058C25.1864 68.4591 22.4796 71.6335 21.645 76.4353C21.6369 76.4849 21.6369 76.5368 21.6334 76.5876C21.5378 77.7318 21.5251 77.7411 20.3573 77.8645C16.9276 78.2105 13.9972 76.1147 13.317 72.7546C13.1717 72.0372 13.264 71.2713 13.2594 70.5273C13.2594 70.2447 13.4311 70.1443 13.7032 70.0728C15.3221 69.657 16.826 68.8801 18.1024 67.8005C18.3329 67.6056 18.5508 67.3945 18.741 67.2238L16.357 64.8395C16.0469 65.0806 15.701 65.3771 15.3287 65.6366C11.4333 68.3542 6.00004 67.0046 3.84773 62.7679C3.63561 62.3515 3.40504 62.2166 2.95659 62.2327C1.99053 62.2673 1.02216 62.2431 0.046875 62.2431C0.685538 65.3009 4.0414 70.1017 10.4799 70.4569C10.4799 71.0694 10.4534 71.6911 10.4799 72.3105C10.6782 76.2646 14.0663 79.9638 17.9813 80.5255C19.1341 80.6916 20.2869 80.7181 21.4271 80.4505C21.7545 80.3744 21.8559 80.4817 21.9505 80.7966C23.2924 85.2086 26.2171 87.9769 30.7292 88.955C36.4357 90.195 42.4499 86.3401 43.7837 80.6259C43.9884 79.7674 44.0966 78.8888 44.1065 78.0063C44.1377 72.8827 44.1238 67.7578 44.1227 62.633C44.125 62.5176 44.1134 62.4023 44.1019 62.265Z" fill="#14142B"/>
<path d="M10.4711 18.7173C7.40687 18.8938 4.81648 20.0103 2.71028 22.1869C1.42175 23.5114 0.489348 25.1407 0 26.9231C1.17242 26.9231 2.2895 26.9404 3.40428 26.9023C3.54492 26.9023 3.71439 26.6324 3.80777 26.4548C4.95021 24.2793 6.70365 22.8721 9.10037 22.3334C11.6539 21.7567 13.9491 22.3588 15.9677 24.0221C16.1095 24.1374 16.2502 24.2528 16.3597 24.3474C17.1586 23.548 17.9379 22.7706 18.7483 21.9609C17.6641 20.8785 16.3655 20.0354 14.9359 19.4855C14.6512 19.3702 14.3595 19.2733 14.0702 19.1856C13.2021 18.9238 13.201 18.9272 13.1756 17.9837C13.0995 15.0931 15.2115 12.3698 18.0359 11.6996C19.0649 11.4531 20.1381 11.4582 21.1646 11.7146C21.4598 11.7873 21.6096 11.9165 21.6338 12.2591C21.9947 17.3851 26.1183 21.7682 31.1907 22.4395C31.7095 22.5076 32.234 22.5376 32.8047 22.5883V19.2433C32.1268 19.121 31.4397 19.0368 30.7722 18.8719C27.7749 18.1314 24.7488 15.1024 24.9897 10.6927C25.1718 7.34761 27.881 4.23326 31.3302 3.55041C32.3879 3.34322 33.4769 3.35551 34.5297 3.58652C35.5824 3.81753 36.5766 4.26234 37.4506 4.89341C38.3246 5.52447 39.0598 6.32835 39.6106 7.25525C40.1615 8.18216 40.5163 9.21235 40.6531 10.282C40.7081 10.7027 40.7362 11.1265 40.7372 11.5508C40.7434 16.4723 40.7434 21.3937 40.7372 26.3152V26.8977H44.1357V23.9402C44.1357 19.752 44.0919 15.5637 44.1357 11.3755C44.1911 5.93462 40.2438 1.28846 35.1069 0.227273C29.3266 -0.965409 23.438 2.64955 21.9439 8.40995C21.8932 8.60489 21.8402 8.79982 21.7802 9.02706C18.7575 8.37881 16.0161 8.95208 13.6621 10.9591C11.308 12.9661 10.2832 15.5799 10.4711 18.7173Z" fill="#14142B"/>
</svg>
